<svg xmlns="http://www.w3.org/2000/svg" viewBox="0 0 1600 900" fill="none">
<defs>
  <linearGradient id="sky" x1="0" y1="0" x2="1600" y2="900" gradientUnits="userSpaceOnUse">
    <stop stop-color="#4fc9d4"/>
    <stop offset="1" stop-color="#0f3557"/>
  </linearGradient>
  <linearGradient id="fade" x1="0" y1="520" x2="0" y2="900" gradientUnits="userSpaceOnUse">
    <stop stop-color="#0B2236" stop-opacity="0"/>
    <stop offset="1" stop-color="#0B2236" stop-opacity=".72"/>
  </linearGradient>
</defs>
<rect width="1600" height="900" rx="54" fill="url(#sky)"/>
<rect x="0" y="0" width="1600" height="900" fill="url(#fade)" opacity=".2"/>
<circle cx="1300" cy="160" r="120" fill="#F2C073"/><path d="M0 540C200 500 330 508 530 560C700 606 900 610 1120 548C1320 492 1460 492 1600 520V900H0V540Z" fill="#1B5D86"/><path d="M0 640C220 620 350 642 520 688C720 742 930 746 1160 686C1340 640 1472 632 1600 648V900H0V640Z" fill="#47A9D0" opacity=".58"/><g opacity=".95"><rect x="140" y="300" width="80" height="150" rx="14" fill="#F3D077"/><rect x="228" y="260" width="92" height="190" rx="14" fill="#F29A71"/><rect x="328" y="222" width="88" height="228" rx="14" fill="#6ED5CA"/><rect x="424" y="282" width="94" height="168" rx="14" fill="#8FD9F6"/><rect x="526" y="236" width="96" height="214" rx="14" fill="#D06C57"/><rect x="628" y="194" width="88" height="256" rx="14" fill="#B0E3F0"/></g><path d="M780 520C900 430 1010 390 1130 394C1262 398 1370 442 1490 520" stroke="#E6F2F7" stroke-width="16" stroke-linecap="round"/><path d="M860 520L1020 364" stroke="#E6F2F7" stroke-width="12" stroke-linecap="round"/><path d="M1430 520L1270 364" stroke="#E6F2F7" stroke-width="12" stroke-linecap="round"/><circle cx="1130" cy="390" r="16" fill="#E6F2F7"/>
<rect y="620" width="1600" height="280" fill="url(#fade)"/>
<text x="104" y="760" fill="#FFF9F0" font-size="112" font-family="Inter, Arial, sans-serif" font-weight="800">Busan</text>
<text x="108" y="810" fill="#F7E6CF" font-size="28" font-family="Inter, Arial, sans-serif" font-weight="700">bridge · beach · hillside homes</text>
</svg>