<svg xmlns="http://www.w3.org/2000/svg" viewBox="0 0 1600 900" fill="none">
<defs>
  <linearGradient id="sky" x1="0" y1="0" x2="1600" y2="900" gradientUnits="userSpaceOnUse">
    <stop stop-color="#1A5A8A"/>
    <stop offset="1" stop-color="#112C43"/>
  </linearGradient>
  <linearGradient id="fade" x1="0" y1="520" x2="0" y2="900" gradientUnits="userSpaceOnUse">
    <stop stop-color="#0B2236" stop-opacity="0"/>
    <stop offset="1" stop-color="#0B2236" stop-opacity=".76"/>
  </linearGradient>
</defs>
<rect width="1600" height="900" rx="54" fill="url(#sky)"/>
<circle cx="1290" cy="150" r="115" fill="#FF9F70" fill-opacity=".92"/>

<rect x="0" y="500" width="1600" height="160" fill="#15304C" fill-opacity=".42"/>
<rect x="120" y="160" width="160" height="430" rx="24" fill="#54C0E8"/>
<rect x="320" y="110" width="200" height="480" rx="22" fill="#92DBF8" fill-opacity=".28" stroke="#D8F7FF" stroke-opacity=".35"/>
<rect x="590" y="200" width="130" height="390" rx="18" fill="#255C8E"/>
<rect x="770" y="150" width="210" height="440" rx="24" fill="#7FD0F1" fill-opacity=".22" stroke="#D8F7FF" stroke-opacity=".32"/>
<rect x="1030" y="240" width="145" height="350" rx="20" fill="#58C5E8"/>
<rect x="1215" y="170" width="170" height="420" rx="22" fill="#1A446E"/>
<path d="M460 600H690L650 520H500L460 600Z" fill="#E8F8FF" fill-opacity=".9"/>
<rect x="515" y="458" width="120" height="68" fill="#F1F8FF" fill-opacity=".86"/>
<path d="M550 395H600L618 458H532L550 395Z" fill="#E9C56A"/>
<rect x="572" y="330" width="10" height="65" fill="#E9C56A"/>
<rect x="130" y="640" width="1340" height="92" rx="22" fill="#E8D7C4" fill-opacity=".18" stroke="#FAE3C9" stroke-opacity=".4"/>
<text x="220" y="703" fill="#FFF6E7" font-size="64" font-family="Inter, Arial" font-weight="800">Dotonbori</text>

<rect y="620" width="1600" height="280" fill="url(#fade)"/>
<text x="104" y="748" fill="#FFF9F0" font-size="118" font-family="Inter, Arial, sans-serif" font-weight="800">Osaka</text>
<text x="108" y="802" fill="#F7E6CF" font-size="28" font-family="Inter, Arial, sans-serif" font-weight="700">dotonbori · castle · canal</text>
</svg>