<svg xmlns="http://www.w3.org/2000/svg" viewBox="0 0 1600 900" fill="none">
<defs>
  <linearGradient id="sky" x1="0" y1="0" x2="1600" y2="900" gradientUnits="userSpaceOnUse">
    <stop stop-color="#59c5ee"/>
    <stop offset="1" stop-color="#13385b"/>
  </linearGradient>
  <linearGradient id="fade" x1="0" y1="520" x2="0" y2="900" gradientUnits="userSpaceOnUse">
    <stop stop-color="#0B2236" stop-opacity="0"/>
    <stop offset="1" stop-color="#0B2236" stop-opacity=".72"/>
  </linearGradient>
</defs>
<rect width="1600" height="900" rx="54" fill="url(#sky)"/>
<rect x="0" y="0" width="1600" height="900" fill="url(#fade)" opacity=".2"/>
<circle cx="1310" cy="180" r="120" fill="#F29A71"/><rect x="0" y="610" width="1600" height="290" fill="#113553"/><rect x="0" y="560" width="1600" height="80" fill="#1A577E" fill-opacity=".65"/><path d="M0 610C220 580 320 600 480 640C700 695 930 700 1170 630C1320 586 1440 575 1600 590V900H0V610Z" fill="#154C73" fill-opacity=".55"/><rect x="120" y="200" width="180" height="360" rx="18" fill="#63CBF0" fill-opacity=".35" stroke="#CBF6FF" stroke-opacity=".42"/><rect x="360" y="260" width="150" height="300" rx="16" fill="#285C88"/><rect x="560" y="220" width="190" height="340" rx="18" fill="#81DCF7" fill-opacity=".18" stroke="#D8F8FF" stroke-opacity=".4"/><rect x="990" y="210" width="280" height="300" rx="16" fill="#1A4364" opacity=".85"/><text x="1040" y="330" fill="#FFEF7A" font-size="74" font-family="Inter, Arial" font-weight="800">道頓堀</text><path d="M132 560h360l96-122h244l84 122h190" stroke="#F7E9D5" stroke-width="16" stroke-linecap="round" stroke-linejoin="round"/><rect x="176" y="312" width="282" height="20" rx="10" fill="#F5B96F"/><rect x="212" y="332" width="206" height="18" rx="9" fill="#FFE9C9"/><path d="M238 312V256l112-58l112 58v56" fill="#F5E8CE"/><rect x="268" y="350" width="18" height="124" fill="#F1D3B5"/><rect x="384" y="350" width="18" height="124" fill="#F1D3B5"/>
<rect y="620" width="1600" height="280" fill="url(#fade)"/>
<text x="104" y="760" fill="#FFF9F0" font-size="112" font-family="Inter, Arial, sans-serif" font-weight="800">Osaka</text>
<text x="108" y="810" fill="#F7E6CF" font-size="28" font-family="Inter, Arial, sans-serif" font-weight="700">dotonbori · castle · canal</text>
</svg>