<svg xmlns="http://www.w3.org/2000/svg" viewBox="0 0 1600 900" fill="none">
<defs>
  <linearGradient id="sky" x1="0" y1="0" x2="1600" y2="900" gradientUnits="userSpaceOnUse">
    <stop stop-color="#6ed0f0"/>
    <stop offset="1" stop-color="#16395b"/>
  </linearGradient>
  <linearGradient id="fade" x1="0" y1="520" x2="0" y2="900" gradientUnits="userSpaceOnUse">
    <stop stop-color="#0B2236" stop-opacity="0"/>
    <stop offset="1" stop-color="#0B2236" stop-opacity=".72"/>
  </linearGradient>
</defs>
<rect width="1600" height="900" rx="54" fill="url(#sky)"/>
<rect x="0" y="0" width="1600" height="900" fill="url(#fade)" opacity=".2"/>
<circle cx="1300" cy="170" r="120" fill="#F2BE67"/><path d="M0 560H1600V900H0V560Z" fill="#0F2E4A"/><path d="M0 430C230 470 390 470 560 428C720 388 850 384 1020 420C1200 456 1390 450 1600 410V560H0V430Z" fill="#275B7E" opacity=".48"/><rect x="1100" y="150" width="26" height="410" rx="13" fill="#BDEFFF"/><circle cx="1113" cy="138" r="42" fill="#DDE7F5"/><circle cx="1113" cy="138" r="20" fill="#FF8C6B"/><path d="M220 560H680L820 460H1020L1180 560H1440" stroke="#8FE4F6" stroke-opacity=".75" stroke-width="18" stroke-linecap="round" stroke-linejoin="round"/><path d="M240 530H660" stroke="#D9C7A6" stroke-width="14" stroke-linecap="round"/><path d="M300 530V460l160-78l160 78v70" fill="#C88C56" opacity=".95"/><path d="M316 490H604" stroke="#F3DFC4" stroke-width="12" stroke-linecap="round"/><rect x="338" y="504" width="42" height="112" rx="16" fill="#204E7A"/><rect x="540" y="504" width="42" height="112" rx="16" fill="#204E7A"/>
<rect y="620" width="1600" height="280" fill="url(#fade)"/>
<text x="104" y="760" fill="#FFF9F0" font-size="112" font-family="Inter, Arial, sans-serif" font-weight="800">Seoul</text>
<text x="108" y="810" fill="#F7E6CF" font-size="28" font-family="Inter, Arial, sans-serif" font-weight="700">tower · palace · river nights</text>
</svg>