<svg xmlns="http://www.w3.org/2000/svg" viewBox="0 0 1600 900" fill="none">
<defs>
  <linearGradient id="sky" x1="0" y1="0" x2="1600" y2="900" gradientUnits="userSpaceOnUse">
    <stop stop-color="#4A8AC7"/>
    <stop offset="1" stop-color="#102A43"/>
  </linearGradient>
  <linearGradient id="fade" x1="0" y1="520" x2="0" y2="900" gradientUnits="userSpaceOnUse">
    <stop stop-color="#0B2236" stop-opacity="0"/>
    <stop offset="1" stop-color="#0B2236" stop-opacity=".76"/>
  </linearGradient>
</defs>
<rect width="1600" height="900" rx="54" fill="url(#sky)"/>
<circle cx="1290" cy="150" r="115" fill="#FDB66B" fill-opacity=".92"/>

<rect x="0" y="520" width="1600" height="160" fill="#14324F" fill-opacity=".36"/>
<rect x="160" y="220" width="180" height="390" rx="22" fill="#63C4E6"/>
<rect x="390" y="160" width="210" height="450" rx="24" fill="#93DAF7" fill-opacity=".26" stroke="#D7F7FF" stroke-opacity=".35"/>
<rect x="655" y="250" width="142" height="360" rx="18" fill="#24557A"/>
<rect x="855" y="190" width="188" height="420" rx="22" fill="#8BD8F6" fill-opacity=".2" stroke="#D7F7FF" stroke-opacity=".3"/>
<rect x="1088" y="280" width="150" height="330" rx="20" fill="#69CAE7"/>
<rect x="1292" y="240" width="170" height="370" rx="22" fill="#1C466F"/>
<rect x="1185" y="140" width="22" height="410" rx="11" fill="#ECF8FF"/>
<rect x="1171" y="124" width="50" height="24" rx="12" fill="#ECF8FF"/>
<circle cx="1196" cy="112" r="18" fill="#ECF8FF"/>
<path d="M300 620H620L580 570H340L300 620Z" fill="#F2E7D7"/>
<rect x="360" y="535" width="200" height="36" fill="#F7EFE4"/>
<path d="M330 535H590L545 498H375L330 535Z" fill="#D28C57"/>
<rect x="432" y="560" width="18" height="60" fill="#2B82A5"/><rect x="470" y="560" width="18" height="60" fill="#2B82A5"/>

<rect y="620" width="1600" height="280" fill="url(#fade)"/>
<text x="104" y="748" fill="#FFF9F0" font-size="118" font-family="Inter, Arial, sans-serif" font-weight="800">Seoul</text>
<text x="108" y="802" fill="#F7E6CF" font-size="28" font-family="Inter, Arial, sans-serif" font-weight="700">palace gate · N Seoul Tower · cafe districts</text>
</svg>