<svg xmlns="http://www.w3.org/2000/svg" viewBox="0 0 1600 900" fill="none">
<defs>
  <linearGradient id="sky" x1="0" y1="0" x2="1600" y2="900" gradientUnits="userSpaceOnUse">
    <stop stop-color="#76c4e7"/>
    <stop offset="1" stop-color="#17395b"/>
  </linearGradient>
  <linearGradient id="fade" x1="0" y1="520" x2="0" y2="900" gradientUnits="userSpaceOnUse">
    <stop stop-color="#0B2236" stop-opacity="0"/>
    <stop offset="1" stop-color="#0B2236" stop-opacity=".72"/>
  </linearGradient>
</defs>
<rect width="1600" height="900" rx="54" fill="url(#sky)"/>
<rect x="0" y="0" width="1600" height="900" fill="url(#fade)" opacity=".2"/>
<circle cx="1320" cy="160" r="120" fill="#F0C06A"/><rect x="118" y="310" width="240" height="310" rx="18" fill="#203F6B"/><rect x="160" y="260" width="160" height="360" rx="18" fill="#4FB2E2" fill-opacity=".35" stroke="#B6EEFF" stroke-opacity=".4"/><rect x="480" y="260" width="146" height="360" rx="16" fill="#295884"/><rect x="720" y="190" width="188" height="430" rx="18" fill="#7FD8F6" fill-opacity=".24" stroke="#CEF6FF" stroke-opacity=".42"/><rect x="980" y="250" width="128" height="370" rx="16" fill="#5CC7EE"/><rect x="1180" y="134" width="38" height="486" rx="19" fill="#E8695A"/><polygon points="1199,48 1148,134 1250,134" fill="#F08A72"/><rect x="1340" y="120" width="20" height="500" rx="10" fill="#C9F8FF"/><polygon points="1350,48 1318,120 1384,120" fill="#9DE5FF"/><g opacity=".95"><rect x="80" y="640" width="1440" height="180" fill="#0C2337" fill-opacity=".24"/><line x1="70" y1="700" x2="1530" y2="700" stroke="#F7E9D5" stroke-opacity=".85" stroke-width="16"/><line x1="220" y1="658" x2="120" y2="760" stroke="#F7E9D5" stroke-opacity=".92" stroke-width="12" stroke-linecap="round"/><line x1="410" y1="658" x2="310" y2="760" stroke="#F7E9D5" stroke-opacity=".92" stroke-width="12" stroke-linecap="round"/><line x1="600" y1="658" x2="500" y2="760" stroke="#F7E9D5" stroke-opacity=".92" stroke-width="12" stroke-linecap="round"/></g>
<rect y="620" width="1600" height="280" fill="url(#fade)"/>
<text x="104" y="760" fill="#FFF9F0" font-size="112" font-family="Inter, Arial, sans-serif" font-weight="800">Tokyo</text>
<text x="108" y="810" fill="#F7E6CF" font-size="28" font-family="Inter, Arial, sans-serif" font-weight="700">skytree · crossing · neon</text>
</svg>