<svg xmlns="http://www.w3.org/2000/svg" viewBox="0 0 1600 900" fill="none">
<defs>
  <linearGradient id="sky" x1="0" y1="0" x2="1600" y2="900" gradientUnits="userSpaceOnUse">
    <stop stop-color="#56B5E9"/>
    <stop offset="1" stop-color="#102A43"/>
  </linearGradient>
  <linearGradient id="fade" x1="0" y1="520" x2="0" y2="900" gradientUnits="userSpaceOnUse">
    <stop stop-color="#0B2236" stop-opacity="0"/>
    <stop offset="1" stop-color="#0B2236" stop-opacity=".76"/>
  </linearGradient>
</defs>
<rect width="1600" height="900" rx="54" fill="url(#sky)"/>
<circle cx="1290" cy="150" r="115" fill="#F3BE6B" fill-opacity=".92"/>

<rect x="0" y="470" width="1600" height="190" fill="#0E2B45" fill-opacity=".35"/>
<rect x="110" y="280" width="110" height="330" rx="18" fill="#63C2EC"/>
<rect x="240" y="190" width="155" height="420" rx="20" fill="#84D7F3" fill-opacity=".45" stroke="#C7F3FF" stroke-opacity=".4"/>
<rect x="460" y="250" width="135" height="360" rx="16" fill="#204E7A"/>
<rect x="680" y="170" width="180" height="440" rx="22" fill="#8EDCF7" fill-opacity=".24" stroke="#D8F7FF" stroke-opacity=".35"/>
<rect x="935" y="220" width="120" height="390" rx="16" fill="#6CCEF2"/>
<rect x="1095" y="130" width="95" height="480" rx="18" fill="#D55A4C"/>
<polygon points="1142,42 1088,130 1198,130" fill="#E57C69"/>
<rect x="1360" y="110" width="24" height="500" rx="12" fill="#C3F6FF"/>
<polygon points="1372,42 1338,112 1406,112" fill="#9DE4FF"/>
<line x1="80" y1="670" x2="1520" y2="670" stroke="#E8D8C6" stroke-opacity=".55" stroke-width="16"/>
<line x1="250" y1="640" x2="150" y2="740" stroke="#E8D8C6" stroke-opacity=".7" stroke-width="10" stroke-linecap="round"/>
<line x1="410" y1="640" x2="310" y2="740" stroke="#E8D8C6" stroke-opacity=".7" stroke-width="10" stroke-linecap="round"/>
<line x1="570" y1="640" x2="470" y2="740" stroke="#E8D8C6" stroke-opacity=".7" stroke-width="10" stroke-linecap="round"/>

<rect y="620" width="1600" height="280" fill="url(#fade)"/>
<text x="104" y="748" fill="#FFF9F0" font-size="118" font-family="Inter, Arial, sans-serif" font-weight="800">Tokyo</text>
<text x="108" y="802" fill="#F7E6CF" font-size="28" font-family="Inter, Arial, sans-serif" font-weight="700">crossing · tower · neighborhoods</text>
</svg>