<svg xmlns="http://www.w3.org/2000/svg" width="512" height="512" viewBox="0 0 512 512">
<defs>
  <linearGradient id="g" x1="0" y1="0" x2="1" y2="1">
    <stop offset="0%" stop-color="#ffb07c"/>
    <stop offset="100%" stop-color="#f07c4c"/>
  </linearGradient>
</defs>
<rect width="512" height="512" rx="128" fill="#fff8f0"/>
<path d="M118 153c34-20 83-30 138-30 77 0 129 27 129 68 0 44-56 72-133 72-29 0-57-4-79-11l-6 4c-14 10-32 29-42 54-4 10-17 11-23 2-15-24-13-56 4-86-16-14-25-31-25-49 0-9 2-17 7-24 8-11 18-20 30-27z" fill="url(#g)"/>
<path d="M356 314c-24 41-81 70-147 70-25 0-50-4-72-11l-28 21c-12 9-29-2-25-17l11-43c-17-15-27-33-27-53 0-13 4-25 11-36 4-6 12-7 18-3 26 18 65 29 110 29 83 0 153-38 170-90 1-4 6-6 10-4 42 20 67 50 67 83 0 21-10 40-28 54l11 42c4 15-13 27-25 18l-29-22c-12 4-24 7-37 9z" fill="#24415a" opacity=".92"/>
<circle cx="170" cy="215" r="14" fill="#fff8f0"/>
<circle cx="220" cy="215" r="14" fill="#fff8f0"/>
<circle cx="286" cy="336" r="10" fill="#fff8f0"/>
<circle cx="326" cy="336" r="10" fill="#fff8f0"/>
</svg>