<svg width="64" height="64" viewBox="0 0 64 64" fill="none" xmlns="http://www.w3.org/2000/svg">
<defs>
  <linearGradient id="bg" x1="10" y1="8" x2="55" y2="56" gradientUnits="userSpaceOnUse">
    <stop stop-color="#FFF7EF"/>
    <stop offset="1" stop-color="#FFF0E3"/>
  </linearGradient>
  <linearGradient id="navy" x1="18" y1="14" x2="36" y2="41" gradientUnits="userSpaceOnUse">
    <stop stop-color="#28486D"/>
    <stop offset="1" stop-color="#15273A"/>
  </linearGradient>
  <linearGradient id="coral" x1="24" y1="28" x2="49" y2="50" gradientUnits="userSpaceOnUse">
    <stop stop-color="#FF9C70"/>
    <stop offset="1" stop-color="#E86C3E"/>
  </linearGradient>
</defs>
<rect x="4" y="4" width="56" height="56" rx="18" fill="url(#bg)"/>
<rect x="4.5" y="4.5" width="55" height="55" rx="17.5" stroke="#E7DCCF"/>
<path d="M18 21.5C18 19.567 19.567 18 21.5 18H35.2C37.133 18 38.7 19.567 38.7 21.5V24.3C38.7 26.233 37.133 27.8 35.2 27.8H25.9V44C25.9 45.049 25.049 45.9 24 45.9H19.9C18.851 45.9 18 45.049 18 44V21.5Z" fill="url(#navy)"/>
<path d="M28.8 32.2C28.8 30.267 30.367 28.7 32.3 28.7H42.5C44.433 28.7 46 30.267 46 32.2V42.5C46 44.433 44.433 46 42.5 46H32.3C30.367 46 28.8 44.433 28.8 42.5V32.2Z" fill="url(#coral)"/>
<path d="M33.4 38.6H41.4" stroke="#FFF8F1" stroke-width="2.5" stroke-linecap="round"/>
<path d="M37.4 34.6V42.6" stroke="#FFF8F1" stroke-width="2.5" stroke-linecap="round"/>
</svg>