<svg width="1200" height="630" viewBox="0 0 1200 630" fill="none" xmlns="http://www.w3.org/2000/svg">
<defs>
  <linearGradient id="bg" x1="54" y1="40" x2="1120" y2="590" gradientUnits="userSpaceOnUse">
    <stop stop-color="#FFF8F1"/>
    <stop offset="1" stop-color="#FFF3E8"/>
  </linearGradient>
  <radialGradient id="glow1" cx="0" cy="0" r="1" gradientUnits="userSpaceOnUse" gradientTransform="translate(1024 126) rotate(152.72) scale(373.403 247.552)">
    <stop stop-color="#2B4E74" stop-opacity="0.16"/>
    <stop offset="1" stop-color="#2B4E74" stop-opacity="0"/>
  </radialGradient>
  <radialGradient id="glow2" cx="0" cy="0" r="1" gradientUnits="userSpaceOnUse" gradientTransform="translate(208 516) rotate(-21.2) scale(328.22 191.347)">
    <stop stop-color="#FFB18A" stop-opacity="0.28"/>
    <stop offset="1" stop-color="#FFB18A" stop-opacity="0"/>
  </radialGradient>
  <linearGradient id="navy" x1="0" y1="0" x2="1" y2="1">
    <stop stop-color="#28486D"/>
    <stop offset="1" stop-color="#15273A"/>
  </linearGradient>
  <linearGradient id="coral" x1="0" y1="0" x2="1" y2="1">
    <stop stop-color="#FFA67B"/>
    <stop offset="1" stop-color="#E86C3E"/>
  </linearGradient>
</defs>
<rect width="1200" height="630" rx="36" fill="url(#bg)"/>
<rect x="28" y="28" width="1144" height="574" rx="28" stroke="#E7DCCF" stroke-width="2"/>
<ellipse cx="1024" cy="126" rx="320" ry="212" fill="url(#glow1)"/>
<ellipse cx="208" cy="516" rx="282" ry="164" fill="url(#glow2)"/>
<g>
  <rect x="110" y="119" width="124" height="124" rx="34" fill="#FFF7EF"/>
  <rect x="111" y="120" width="122" height="122" rx="33" stroke="#E7DCCF" stroke-width="2"/>
  <path d="M142 156.947C142 152.558 145.558 149 149.947 149H180.256C184.645 149 188.203 152.558 188.203 156.947V162.509C188.203 166.898 184.645 170.456 180.256 170.456H159.432V208.242C159.432 210.512 157.592 212.352 155.322 212.352H146.11C143.84 212.352 142 210.512 142 208.242V156.947Z" fill="url(#navy)"/>
  <rect x="166.627" y="172.5" width="38.3739" height="38.3739" rx="11.2" fill="url(#coral)"/>
  <path d="M177.9 191.687H193.728" stroke="#FFF8F1" stroke-width="4.3" stroke-linecap="round"/>
  <path d="M185.814 183.772V199.601" stroke="#FFF8F1" stroke-width="4.3" stroke-linecap="round"/>
</g>
<text x="274" y="192" fill="#15273A" font-family="Inter, Arial, sans-serif" font-size="78" font-weight="800" letter-spacing="-2">Ryoko<tspan fill="#E86C3E">plan</tspan></text>
<text x="274" y="244" fill="#8E6C4A" font-family="Inter, Arial, sans-serif" font-size="30" font-weight="700">Read the city. Plan the trip.</text>
<text x="110" y="340" fill="#15273A" font-family="Inter, Arial, sans-serif" font-size="48" font-weight="800" letter-spacing="-1.2">Japan &amp; Korea travel planning</text>
<text x="110" y="392" fill="#506375" font-family="Inter, Arial, sans-serif" font-size="28" font-weight="500">Magazine-led city guides, sample routes, and trip plans that feel usable right away.</text>
<g>
  <rect x="110" y="452" width="214" height="58" rx="29" fill="#FFFDF9" stroke="#E7DCCF"/>
  <text x="141" y="489" fill="#9A734B" font-family="Inter, Arial, sans-serif" font-size="20" font-weight="800">Japan / Korea focus</text>
  <rect x="340" y="452" width="194" height="58" rx="29" fill="#FFFDF9" stroke="#E7DCCF"/>
  <text x="371" y="489" fill="#9A734B" font-family="Inter, Arial, sans-serif" font-size="20" font-weight="800">Read → Plan → Save</text>
  <rect x="552" y="452" width="198" height="58" rx="29" fill="#FFFDF9" stroke="#E7DCCF"/>
  <text x="583" y="489" fill="#9A734B" font-family="Inter, Arial, sans-serif" font-size="20" font-weight="800">Real-photo city tone</text>
</g>
<g opacity="0.96">
  <rect x="800" y="194" width="284" height="226" rx="28" fill="#FFFDF9" stroke="#E7DCCF"/>
  <text x="832" y="246" fill="#9A734B" font-family="Inter, Arial, sans-serif" font-size="18" font-weight="800">Editor’s flow</text>
  <text x="832" y="290" fill="#15273A" font-family="Inter, Arial, sans-serif" font-size="34" font-weight="800" letter-spacing="-0.8">Tokyo → Kyoto → Osaka</text>
  <text x="832" y="332" fill="#5C6B79" font-family="Inter, Arial, sans-serif" font-size="22" font-weight="500">Fast city first,</text>
  <text x="832" y="364" fill="#5C6B79" font-family="Inter, Arial, sans-serif" font-size="22" font-weight="500">then slow the trip down,</text>
  <text x="832" y="396" fill="#5C6B79" font-family="Inter, Arial, sans-serif" font-size="22" font-weight="500">then end with easier food and fun.</text>
</g>
</svg>